<?xml version="1.0" standalone="no"?>
<!DOCTYPE svg PUBLIC "-//W3C//DTD SVG 20010904//EN"
 "http://www.w3.org/TR/2001/REC-SVG-20010904/DTD/svg10.dtd">
<svg version="1.0" xmlns="http://www.w3.org/2000/svg"
 width="3806.000000pt" height="2604.000000pt" viewBox="0 0 3806.000000 2604.000000"
 preserveAspectRatio="xMidYMid meet">

<g transform="translate(0.000000,2604.000000) scale(0.100000,-0.100000)"
fill="#000000" stroke="none">
<path d="M14355 15429 c-96 -13 -654 -41 -720 -35 -33 2 -78 9 -101 14 -48 10
-371 -8 -839 -48 -521 -45 -596 -52 -945 -95 -217 -26 -288 -37 -410 -62 -209
-43 -285 -62 -460 -117 -262 -83 -311 -96 -411 -115 -221 -42 -403 -121 -514
-223 -87 -81 -101 -90 -216 -138 -53 -23 -106 -50 -118 -61 -26 -25 -27 -63
-1 -117 27 -55 25 -66 -15 -142 -88 -165 -115 -221 -115 -243 0 -63 91 -117
195 -117 36 0 65 -4 65 -8 0 -9 -80 -50 -125 -64 -16 -5 -67 -13 -113 -18 -98
-10 -126 -26 -188 -101 -59 -72 -57 -79 12 -72 51 5 58 4 74 -17 17 -23 17
-23 63 -5 50 19 64 15 77 -21 7 -18 17 -24 42 -24 49 0 114 -37 161 -91 23
-27 48 -49 55 -49 31 0 112 -51 118 -74 9 -35 -8 -59 -86 -121 -39 -31 -70
-61 -70 -68 0 -7 7 -21 15 -31 8 -11 15 -38 15 -59 0 -50 -43 -94 -124 -126
-60 -25 -66 -24 -195 24 -43 15 -46 15 -95 -6 -28 -12 -64 -32 -79 -45 -40
-34 -154 -86 -180 -82 -31 4 -49 46 -37 89 6 19 44 75 85 124 62 74 75 96 75
125 0 28 10 47 45 87 56 64 58 77 8 69 -21 -4 -60 -9 -88 -12 -59 -7 -109 -48
-156 -129 -32 -55 -34 -75 -17 -138 11 -42 10 -46 -33 -123 -87 -155 -97 -202
-53 -253 30 -36 74 -41 144 -16 23 8 53 15 66 15 26 0 43 -18 22 -24 -83 -24
-105 -31 -113 -37 -19 -14 -277 -89 -507 -147 -201 -51 -291 -80 -352 -112
-59 -30 -75 -52 -57 -74 26 -31 89 -19 246 44 361 146 638 167 877 67 45 -19
57 -50 32 -84 -20 -26 -95 -73 -117 -73 -13 0 -57 -80 -57 -104 0 -7 12 -19
26 -26 60 -33 108 -117 123 -220 15 -103 -11 -200 -64 -234 -14 -9 -25 -24
-25 -32 0 -25 -76 -110 -114 -128 -46 -21 -77 -20 -130 5 -42 21 -46 21 -94 5
-62 -20 -111 -21 -138 -2 -11 8 -36 40 -55 71 -49 81 -64 99 -77 91 -21 -13
-13 -31 41 -103 96 -126 99 -165 16 -203 -88 -42 -111 -97 -68 -166 25 -41 51
-49 136 -41 58 6 69 4 97 -17 29 -22 166 -72 263 -96 23 -6 45 -15 49 -21 9
-16 110 -59 137 -59 12 0 31 6 42 14 11 7 63 16 118 20 95 7 101 6 137 -18 48
-31 59 -70 34 -121 -30 -63 -136 -122 -201 -110 -28 4 -51 0 -85 -15 -51 -22
-82 -27 -113 -17 -15 5 -23 1 -30 -16 -6 -12 -34 -34 -64 -49 -97 -50 -112
-75 -82 -144 30 -67 90 -96 261 -124 41 -7 82 -14 90 -17 8 -3 59 -11 112 -19
102 -14 171 -7 293 30 28 9 77 16 111 16 33 0 64 3 68 7 4 4 33 8 65 9 34 1
73 9 92 19 26 13 60 18 139 19 79 1 112 5 131 17 39 26 109 29 142 7 24 -17
27 -26 27 -74 0 -46 -5 -62 -35 -105 -19 -28 -35 -55 -35 -60 0 -5 10 -19 21
-30 17 -17 30 -20 65 -16 48 5 101 -14 151 -57 18 -16 37 -24 47 -20 19 7 22
-16 5 -33 -16 -16 -3 -49 14 -35 9 8 19 5 37 -8 14 -11 28 -20 32 -20 7 0 74
-42 96 -60 19 -17 15 -32 -28 -89 -39 -52 -49 -91 -31 -120 13 -20 62 -16 102
8 42 26 60 26 91 1 18 -13 28 -34 32 -65 4 -25 11 -45 16 -45 16 0 90 -76 90
-92 0 -9 14 -21 30 -27 17 -5 30 -15 30 -20 0 -6 8 -11 18 -11 9 0 44 -9 77
-20 48 -17 65 -18 87 -9 19 8 36 8 57 1 26 -9 31 -8 36 9 4 13 15 19 36 19 38
0 37 -15 -3 -36 l-33 -17 50 -18 c28 -10 65 -18 83 -18 19 -1 47 -9 63 -18 27
-16 31 -16 58 0 37 22 58 21 105 -3 37 -18 41 -18 67 -3 24 14 37 15 79 7 41
-9 52 -8 58 3 7 11 20 9 72 -8 78 -25 120 -60 100 -83 -17 -21 -3 -38 47 -55
21 -7 84 -36 141 -63 57 -28 121 -52 143 -55 22 -3 42 -10 45 -14 6 -11 34
-12 34 -1 0 7 -11 13 -112 52 -31 12 -64 30 -73 40 -10 11 -33 24 -52 31 -21
7 -38 20 -43 35 -12 32 -40 42 -52 21 -10 -20 -43 -23 -54 -5 -4 6 2 19 14 29
12 9 22 24 22 33 0 16 10 20 42 17 9 -1 35 7 57 18 52 27 76 26 130 -4 42 -24
47 -25 124 -15 44 5 82 12 85 14 2 3 25 -3 51 -14 30 -11 74 -18 122 -19 105
-1 139 7 149 35 11 28 40 31 75 8 29 -19 75 -15 195 18 61 16 89 18 150 12
122 -12 380 -9 427 4 23 7 55 24 71 37 33 28 57 32 69 12 9 -15 100 -47 133
-47 11 0 34 -9 49 -21 33 -24 82 -23 211 5 41 9 104 16 140 16 36 0 85 5 109
11 24 5 91 12 148 14 57 2 113 7 124 10 15 5 29 -1 50 -21 33 -32 55 -33 271
-13 129 11 138 14 138 45 0 21 5 24 38 24 32 0 41 -5 50 -25 11 -25 13 -25
142 -25 72 0 191 -7 264 -15 121 -14 137 -14 180 0 45 15 48 15 79 -4 18 -10
59 -24 92 -29 47 -7 284 -9 520 -3 11 0 157 -1 325 -3 168 -2 312 -1 320 3 8
4 107 3 220 -2 141 -7 213 -6 232 1 17 6 30 7 34 1 3 -5 57 -9 120 -9 105 0
115 2 112 18 -3 18 -11 19 -222 41 -58 6 -100 5 -118 -1 -20 -7 -32 -7 -42 1
-7 6 -16 8 -19 4 -4 -3 -12 -1 -19 4 -7 6 -44 9 -83 8 -38 -1 -77 2 -86 8 -13
8 -24 6 -43 -7 -14 -9 -41 -16 -59 -16 -17 0 -70 0 -116 0 -46 0 -89 4 -95 9
-8 7 -36 7 -80 0 -37 -5 -77 -7 -89 -3 -13 3 -34 1 -49 -5 -17 -6 -29 -6 -35
0 -14 14 -163 19 -187 7 -13 -7 -27 -5 -50 7 -28 15 -40 16 -85 6 -60 -13 -91
-7 -139 26 -19 12 -44 23 -54 23 -36 0 -12 25 41 43 38 12 109 20 254 27 227
10 791 15 1027 9 137 -4 155 -6 158 -21 4 -19 37 -25 47 -9 3 5 33 9 68 9 34
0 122 5 196 12 118 11 136 11 145 -2 9 -13 13 -13 23 -2 7 7 36 15 65 18 166
17 309 27 353 25 28 -1 82 3 120 9 112 17 333 32 575 37 124 2 300 7 391 11
120 5 168 4 173 -5 4 -6 28 -11 54 -11 26 0 92 -8 147 -16 55 -9 125 -17 155
-20 32 -2 80 -15 113 -31 42 -20 60 -24 66 -15 5 8 17 9 41 2 19 -5 112 -14
205 -20 94 -6 229 -18 300 -27 72 -8 283 -19 470 -24 187 -4 374 -11 415 -15
74 -6 75 -5 104 25 19 20 40 31 57 31 55 0 202 31 242 52 36 18 47 19 82 10
28 -7 45 -7 59 0 33 18 664 -7 776 -29 25 -5 65 -20 90 -33 66 -34 93 -40 115
-24 22 16 71 18 80 4 7 -11 84 -5 120 9 110 44 149 55 210 61 86 7 145 33 212
93 48 42 77 56 145 71 24 5 35 -1 81 -50 33 -34 59 -54 66 -50 8 5 7 13 -4 29
-15 22 -20 68 -8 80 9 10 32 -25 33 -50 0 -34 20 -38 46 -9 14 14 31 26 39 26
21 0 28 19 14 36 -14 18 -5 31 13 17 14 -11 50 -3 48 12 -1 4 12 14 29 21 21
9 30 20 33 40 4 39 63 54 213 56 103 2 134 -2 215 -24 133 -37 179 -43 213
-25 21 11 38 12 69 5 46 -10 94 -3 105 16 11 17 83 42 116 41 21 -1 32 -10 45
-36 l17 -34 129 -3 c78 -1 134 2 141 8 9 7 27 4 61 -11 42 -18 54 -19 82 -9
28 10 36 9 51 -4 24 -22 40 -20 68 6 22 20 26 21 60 9 31 -12 38 -11 47 1 6 8
28 21 49 29 35 12 40 12 51 -3 11 -15 20 -16 72 -7 55 10 77 13 147 17 23 2
27 7 27 30 0 45 33 69 43 31 3 -12 10 -18 16 -15 6 4 7 14 4 23 -7 19 22 44
43 36 8 -3 14 -12 14 -20 0 -17 32 -12 87 14 29 13 31 18 30 60 -3 67 21 83
129 83 101 0 108 -8 65 -76 -40 -62 -41 -89 -3 -81 37 8 246 134 354 214 23
18 76 57 115 85 81 59 99 82 55 72 -15 -4 -60 -34 -101 -67 -73 -58 -74 -59
-111 -48 -52 15 -90 48 -90 76 0 63 36 102 198 217 62 45 117 89 123 100 8 14
4 30 -18 68 -31 55 -28 73 20 100 23 13 31 13 69 0 26 -9 47 -24 53 -37 5 -13
13 -23 18 -23 10 0 185 118 192 130 3 5 -2 13 -10 18 -21 11 -9 42 16 42 22 0
24 -11 7 -28 -7 -7 -9 -12 -4 -12 11 0 31 22 39 43 3 9 13 17 21 17 9 0 45 10
81 21 60 20 65 24 65 50 0 21 -16 46 -61 94 -60 64 -91 79 -103 50 -9 -24 -66
-18 -130 15 -72 37 -103 37 -164 5 -67 -36 -88 -33 -139 20 -36 38 -43 52 -43
86 0 29 -9 53 -31 85 -49 72 -59 103 -48 157 5 27 12 53 15 59 7 10 63 6 96
-7 13 -5 20 -1 24 11 13 41 30 67 73 112 105 109 276 159 607 178 148 8 168
23 86 61 -20 9 -67 36 -105 60 -58 37 -74 43 -123 43 -32 0 -68 -7 -87 -17
-35 -18 -153 -27 -163 -11 -3 5 0 15 6 23 18 22 -5 47 -36 39 -15 -4 -34 0
-49 10 -22 15 -24 21 -19 59 4 23 18 66 32 95 30 64 67 90 181 127 45 15 81
30 81 33 0 4 -14 15 -30 24 -34 19 -37 38 -14 73 13 19 14 39 9 100 -7 75 -7
75 31 136 22 33 56 82 77 109 20 27 37 57 37 65 0 22 18 55 47 87 21 21 30 25
48 18 29 -11 40 10 20 37 -20 25 -18 39 5 61 13 12 18 25 14 35 -8 22 15 117
29 117 6 0 26 -14 44 -32 36 -35 58 -31 26 5 -33 37 -81 123 -91 164 -6 21
-13 88 -16 148 -7 120 3 175 50 268 27 53 59 73 98 63 31 -8 34 -31 7 -48 -18
-11 -17 -13 16 -24 26 -9 51 -10 92 -3 31 5 88 7 126 3 111 -10 175 16 175 70
0 29 -30 44 -102 51 -89 9 -104 16 -122 60 -16 38 -18 38 -141 56 -44 6 -100
15 -125 19 -243 41 -295 50 -450 82 -112 23 -164 38 -181 54 -16 14 -31 16
-91 10 -44 -4 -79 -13 -90 -23 -12 -11 -21 -13 -30 -6 -7 6 -53 13 -103 15
-109 6 -165 27 -165 60 0 13 5 29 12 36 9 9 -4 12 -60 12 -78 0 -179 30 -189
58 -10 24 33 52 81 52 23 0 85 -11 139 -25 109 -27 247 -37 254 -18 4 12 -57
48 -107 64 -180 56 -465 161 -549 200 -58 28 -124 58 -146 66 -22 8 -49 18
-60 23 -40 16 -101 31 -140 35 -22 2 -65 13 -95 24 -30 11 -71 20 -90 21 -19
0 -57 9 -85 19 -47 18 -87 24 -342 51 -107 12 -223 26 -323 40 -36 6 -123 17
-195 25 -288 35 -448 61 -575 95 -119 32 -264 48 -705 80 -315 22 -412 31
-478 42 -56 9 -90 8 -201 -7 -95 -12 -172 -16 -263 -13 -118 4 -135 7 -199 36
-38 18 -91 37 -119 43 -30 7 -215 13 -455 15 -243 2 -425 8 -455 15 -35 7
-289 9 -850 6 -694 -4 -820 -7 -950 -23 -132 -16 -237 -18 -865 -18 -544 -1
-738 2 -810 12 -545 77 -562 79 -780 87 -74 3 -166 10 -205 15 -38 5 -86 9
-105 8 -42 -2 -156 7 -345 26 -310 32 -603 39 -1670 42 -588 1 -1097 -2 -1130
-7z m-4427 -1189 c40 -18 42 -21 42 -62 0 -56 -33 -113 -88 -155 -37 -28 -52
-33 -95 -33 -29 1 -62 6 -74 13 -37 20 -73 78 -73 115 0 105 168 177 288 122z
m17857 -2410 c10 -16 -5 -50 -21 -50 -9 0 -14 11 -14 30 0 30 21 42 35 20z
m-266 -816 c2 -2 4 -15 4 -29 0 -35 -28 -63 -77 -76 -23 -6 -75 -22 -116 -34
-139 -43 -175 -49 -251 -49 -63 0 -82 4 -108 23 -44 32 -39 61 16 81 22 8 49
22 60 31 25 23 70 29 90 13 20 -15 53 -18 53 -5 0 4 9 20 21 34 l20 27 142 -7
c78 -3 144 -7 146 -9z m-1124 -219 l40 -34 -22 -23 c-13 -14 -23 -39 -25 -63
-3 -39 -4 -40 -40 -39 -48 2 -65 16 -73 64 -7 41 3 69 38 108 27 29 34 28 82
-13z m1204 -71 c54 -45 31 -104 -40 -104 -29 0 -43 6 -63 31 -36 42 -33 63 9
87 32 18 61 14 94 -14z m-17713 -35 c86 -22 111 -99 52 -156 -45 -44 -82 -56
-124 -43 -39 13 -104 82 -104 111 0 27 53 76 94 88 17 5 32 10 34 10 2 1 23
-4 48 -10z m1161 -495 c4 -10 0 -22 -9 -28 -14 -10 -14 -14 3 -35 11 -13 19
-29 19 -37 0 -19 24 -18 40 1 17 20 33 19 54 -4 24 -26 14 -51 -35 -96 -31
-27 -44 -34 -53 -25 -10 8 -15 6 -19 -10 -3 -11 -13 -20 -24 -20 -17 0 -20 8
-21 51 0 31 5 61 14 74 12 19 13 25 2 31 -7 5 -17 9 -23 9 -5 0 -15 11 -22 25
-11 22 -10 26 7 32 11 4 20 14 20 22 0 13 13 23 33 25 4 1 10 -6 14 -15z
m-113 -36 c23 -33 20 -46 -16 -62 -31 -13 -34 -12 -55 13 -28 33 -29 49 0 61
36 14 55 11 71 -12z m5623 -675 c5 -15 -59 -34 -69 -20 -3 6 -4 16 -1 24 7 17
65 14 70 -4z"/>
<path d="M28815 13250 c-3 -5 -20 -10 -37 -10 -16 0 -42 -8 -56 -19 -15 -10
-45 -21 -67 -25 -109 -18 -132 -23 -162 -36 -26 -11 -33 -20 -33 -41 0 -23 11
-34 78 -73 43 -25 82 -46 85 -46 4 0 18 17 31 38 13 20 52 60 86 87 110 88
130 107 130 121 0 16 -46 19 -55 4z"/>
<path d="M28424 12889 c-4 -7 -12 -30 -19 -52 -12 -42 -32 -59 -39 -35 -2 7
-7 25 -10 41 -8 37 -25 34 -69 -11 -47 -48 -47 -71 0 -146 l36 -60 -21 -60
c-29 -80 -29 -113 0 -122 13 -4 24 -2 26 5 6 18 29 13 35 -9 4 -15 12 -19 41
-17 19 2 41 8 48 15 15 15 41 15 56 0 9 -9 15 -9 24 0 7 7 20 12 31 12 27 0
17 34 -11 38 -13 2 -46 -4 -73 -14 -47 -17 -50 -17 -67 0 -16 16 -16 19 12 43
27 23 35 25 85 18 170 -20 216 9 179 112 -10 27 -10 38 0 53 14 23 9 25 -20 9
-40 -21 -208 28 -208 61 0 30 29 44 86 44 41 -1 54 2 54 13 0 11 -7 13 -25 9
-20 -5 -36 2 -72 29 -48 37 -67 42 -79 24z"/>
<path d="M28670 11955 c-11 -13 -10 -18 6 -30 25 -19 35 -18 62 1 18 13 21 19
11 30 -15 19 -63 18 -79 -1z"/>
<path d="M8275 11350 c-8 -13 5 -13 25 0 13 8 13 10 -2 10 -9 0 -20 -4 -23
-10z"/>
<path d="M9042 10789 c3 -8 18 -15 34 -17 33 -4 24 11 -15 23 -17 5 -22 4 -19
-6z"/>
<path d="M28200 10720 c-8 -5 -11 -12 -8 -16 10 -9 38 3 38 16 0 12 -10 13
-30 0z"/>
<path d="M27134 10009 c-11 -18 11 -32 25 -16 9 12 8 16 -3 20 -9 4 -18 1 -22
-4z"/>
<path d="M19617 9504 c-14 -14 -6 -24 19 -24 16 0 24 5 22 13 -5 14 -31 21
-41 11z"/>
<path d="M19703 9497 c2 -7 23 -13 46 -15 31 -2 42 0 39 9 -2 7 -23 14 -47 15
-28 1 -41 -2 -38 -9z"/>
<path d="M19824 9499 c-9 -16 2 -22 21 -11 15 8 16 10 1 15 -8 3 -18 2 -22 -4z"/>
<path d="M19945 9500 c-4 -6 -5 -13 -3 -15 2 -2 77 -7 166 -11 111 -5 162 -4
162 3 0 14 -170 29 -260 23 -8 -1 -25 2 -36 5 -13 4 -25 2 -29 -5z"/>
<path d="M19518 9495 c-3 -3 -45 -10 -94 -16 -48 -5 -90 -12 -93 -15 -15 -15
25 -20 101 -13 87 8 128 21 128 39 0 10 -33 14 -42 5z"/>
<path d="M19885 9490 c-4 -6 5 -10 20 -10 15 0 24 4 20 10 -3 6 -12 10 -20 10
-8 0 -17 -4 -20 -10z"/>
<path d="M18719 9480 c-80 -8 -123 -24 -116 -43 3 -9 46 -11 158 -9 177 4 189
6 189 34 0 18 -4 19 -34 14 -20 -4 -37 -2 -41 4 -7 11 -40 11 -156 0z"/>
<path d="M20320 9480 c-19 -12 -11 -14 100 -29 47 -7 117 -18 155 -26 39 -7
102 -18 140 -23 39 -6 100 -16 136 -21 80 -13 139 -14 139 -3 0 9 -135 32
-187 32 -17 0 -35 5 -38 10 -3 6 -28 10 -54 10 -26 0 -74 9 -106 19 -37 12
-65 16 -75 11 -9 -5 -22 -3 -34 6 -11 8 -35 12 -57 10 -22 -2 -42 0 -45 5 -7
12 -55 11 -74 -1z"/>
<path d="M19188 9474 c-4 -4 -46 -10 -93 -13 -49 -3 -84 -10 -83 -16 4 -14
151 -6 160 8 5 9 10 9 20 -1 14 -14 84 -16 93 -3 3 5 1 12 -3 15 -16 10 -87
18 -94 10z"/>
<path d="M23063 9439 c-31 -12 -31 -49 0 -49 25 0 47 17 47 36 0 17 -21 23
-47 13z"/>
<path d="M18510 9425 c0 -11 7 -15 23 -13 12 2 22 8 22 13 0 6 -10 11 -22 13
-16 2 -23 -2 -23 -13z"/>
<path d="M18245 9420 c-4 -6 35 -10 109 -10 71 0 116 4 116 10 0 6 -43 10
-109 10 -63 0 -112 -4 -116 -10z"/>
<path d="M21182 9391 c-88 -6 -110 -22 -46 -33 74 -13 141 -9 148 8 6 17 0 35
-12 32 -4 -1 -44 -4 -90 -7z"/>
<path d="M21327 9394 c-12 -12 -8 -44 6 -49 6 -2 57 -9 112 -15 55 -5 187 -24
293 -41 106 -18 195 -29 198 -27 2 3 0 17 -6 32 -9 25 -11 26 -32 12 -30 -19
-98 -7 -140 24 -40 30 -97 36 -136 16 -25 -13 -37 -14 -59 -5 -15 6 -37 15
-48 19 -11 5 -49 13 -85 18 -36 6 -72 13 -81 16 -8 4 -18 3 -22 0z"/>
<path d="M22504 9389 c-3 -6 -1 -16 5 -22 8 -8 11 -5 11 11 0 24 -5 28 -16 11z"/>
<path d="M23787 9393 c-12 -11 -8 -23 8 -23 26 0 16 -19 -12 -22 -14 -2 -28
-8 -30 -14 -5 -16 22 -24 57 -17 24 4 30 11 30 31 0 32 -36 63 -53 45z"/>
<path d="M22230 9375 c0 -8 5 -15 10 -15 6 0 10 7 10 15 0 8 -4 15 -10 15 -5
0 -10 -7 -10 -15z"/>
<path d="M12066 9301 c-13 -5 -16 -10 -8 -15 11 -6 52 9 52 19 0 7 -22 5 -44
-4z"/>
<path d="M12850 9223 c-44 -8 -49 -25 -6 -21 22 2 41 9 44 16 2 6 0 11 -5 11
-4 -1 -19 -4 -33 -6z"/>
</g>
</svg>
